<svg width="512" height="512" viewBox="0 0 512 512" fill="none" xmlns="http://www.w3.org/2000/svg">
  <defs>
    <radialGradient id="faceBg" cx="0" cy="0" r="1" gradientUnits="userSpaceOnUse" gradientTransform="translate(256 250) rotate(90) scale(190)">
      <stop offset="0" stop-color="#223D97"/>
      <stop offset="0.55" stop-color="#0D1E58"/>
      <stop offset="1" stop-color="#070D1B"/>
    </radialGradient>
    <radialGradient id="innerGlow" cx="0" cy="0" r="1" gradientUnits="userSpaceOnUse" gradientTransform="translate(256 212) rotate(90) scale(166)">
      <stop offset="0" stop-color="#1A2C72" stop-opacity="0"/>
      <stop offset="0.7" stop-color="#0A1230" stop-opacity="0.22"/>
      <stop offset="1" stop-color="#05070E" stop-opacity="0.9"/>
    </radialGradient>
    <linearGradient id="goldRing" x1="78" y1="77" x2="429" y2="436" gradientUnits="userSpaceOnUse">
      <stop offset="0" stop-color="#FFF8C9"/>
      <stop offset="0.14" stop-color="#FFE28C"/>
      <stop offset="0.36" stop-color="#D49116"/>
      <stop offset="0.5" stop-color="#FFF2B0"/>
      <stop offset="0.68" stop-color="#C67B0C"/>
      <stop offset="0.86" stop-color="#FFD568"/>
      <stop offset="1" stop-color="#FFF7C3"/>
    </linearGradient>
    <linearGradient id="goldText" x1="104" y1="145" x2="405" y2="328" gradientUnits="userSpaceOnUse">
      <stop offset="0" stop-color="#FFFAD8"/>
      <stop offset="0.18" stop-color="#FFE695"/>
      <stop offset="0.48" stop-color="#D48E11"/>
      <stop offset="0.8" stop-color="#FFC94D"/>
      <stop offset="1" stop-color="#FFF2BF"/>
    </linearGradient>
    <linearGradient id="scriptGold" x1="178" y1="98" x2="327" y2="154" gradientUnits="userSpaceOnUse">
      <stop offset="0" stop-color="#FFE79C"/>
      <stop offset="0.5" stop-color="#FFC340"/>
      <stop offset="1" stop-color="#FFF0B7"/>
    </linearGradient>
    <linearGradient id="ribbonPurple" x1="120" y1="286" x2="394" y2="382" gradientUnits="userSpaceOnUse">
      <stop offset="0" stop-color="#340052"/>
      <stop offset="0.22" stop-color="#7F14B8"/>
      <stop offset="0.48" stop-color="#C23BFF"/>
      <stop offset="0.78" stop-color="#6C0AA1"/>
      <stop offset="1" stop-color="#28003F"/>
    </linearGradient>
    <linearGradient id="ribbonEdge" x1="130" y1="289" x2="382" y2="371" gradientUnits="userSpaceOnUse">
      <stop offset="0" stop-color="#D97DFF"/>
      <stop offset="0.45" stop-color="#F0B4FF"/>
      <stop offset="1" stop-color="#B04DE0"/>
    </linearGradient>
    <linearGradient id="silverText" x1="180" y1="309" x2="330" y2="362" gradientUnits="userSpaceOnUse">
      <stop offset="0" stop-color="#FFFFFF"/>
      <stop offset="0.28" stop-color="#EEE8FB"/>
      <stop offset="0.52" stop-color="#B9BED0"/>
      <stop offset="0.78" stop-color="#FFFFFF"/>
      <stop offset="1" stop-color="#D4D6E2"/>
    </linearGradient>
    <linearGradient id="baseArc" x1="119" y1="398" x2="395" y2="398" gradientUnits="userSpaceOnUse">
      <stop offset="0" stop-color="#7A00D3"/>
      <stop offset="0.48" stop-color="#B020FF"/>
      <stop offset="1" stop-color="#230051"/>
    </linearGradient>
    <filter id="badgeShadow" x="22" y="20" width="468" height="472" filterUnits="userSpaceOnUse" color-interpolation-filters="sRGB">
      <feOffset dy="12"/>
      <feGaussianBlur stdDeviation="18"/>
      <feColorMatrix type="matrix" values="0 0 0 0 0 0 0 0 0 0 0 0 0 0 0 0 0 0 0.38 0"/>
      <feBlend mode="normal" in2="SourceGraphic" result="shape"/>
    </filter>
  </defs>

  <g filter="url(#badgeShadow)">
    <circle cx="256" cy="244" r="193" fill="url(#goldRing)"/>
    <circle cx="256" cy="244" r="181" fill="#110E0C"/>
    <circle cx="256" cy="244" r="175" fill="url(#goldRing)"/>
    <circle cx="256" cy="244" r="166" fill="#09101D"/>
    <circle cx="256" cy="244" r="158" fill="url(#faceBg)"/>
    <circle cx="256" cy="244" r="158" fill="url(#innerGlow)"/>

    <path d="M111 399C149 423 199 436 256 436C313 436 363 423 401 399" stroke="url(#baseArc)" stroke-width="14" stroke-linecap="round"/>
    <path d="M111 91C149 67 199 54 256 54C313 54 363 67 401 91" stroke="url(#goldRing)" stroke-width="5" stroke-linecap="round" opacity="0.9"/>

    <text x="256" y="133" text-anchor="middle" font-family="Georgia, 'Times New Roman', serif" font-size="28" font-style="italic" font-weight="700" fill="url(#scriptGold)" stroke="#63228F" stroke-width="5" paint-order="stroke fill">
      E.Kuijs
    </text>

    <text x="256" y="259" text-anchor="middle" font-family="Impact, Haettenschweiler, 'Arial Narrow Bold', sans-serif" font-size="78" letter-spacing="1.5" fill="url(#goldText)" stroke="#5A3408" stroke-width="8" paint-order="stroke fill">
      E-KUIJS
    </text>

    <g>
      <path d="M115 312L145 289H367L397 312L386 371H126L115 312Z" fill="url(#ribbonPurple)" stroke="#23003D" stroke-width="4"/>
      <path d="M145 289L109 309L124 326L115 312L145 289Z" fill="#2A0044" stroke="#23003D" stroke-width="4" stroke-linejoin="round"/>
      <path d="M367 289L403 309L388 326L397 312L367 289Z" fill="#2A0044" stroke="#23003D" stroke-width="4" stroke-linejoin="round"/>
      <path d="M132 301C165 296 206 293 256 293C306 293 347 296 380 301" stroke="url(#ribbonEdge)" stroke-width="3" stroke-linecap="round" opacity="0.95"/>
      <path d="M131 360C167 364 209 366 256 366C303 366 345 364 381 360" stroke="#1F0038" stroke-width="3" stroke-linecap="round" opacity="0.7"/>
    </g>

    <text x="256" y="349" text-anchor="middle" font-family="Impact, Haettenschweiler, 'Arial Narrow Bold', sans-serif" font-size="42" letter-spacing="2.5" fill="url(#silverText)" stroke="#4E155F" stroke-width="4" paint-order="stroke fill">
      SERVICES
    </text>

    <path d="M256 386L261 397H273L263 404L267 416L256 409L245 416L249 404L239 397H251L256 386Z" fill="url(#goldRing)"/>

    <text x="256" y="441" text-anchor="middle" font-family="Georgia, 'Times New Roman', serif" font-size="18" font-weight="700" letter-spacing="1" fill="#F8E8A9">
      EST. 2026
    </text>
  </g>
</svg>
